<mxfile host="app.diagrams.net" modified="2023-01-26T11:58:00.832Z" agent="5.0 (Windows NT 10.0; Win64; x64) AppleWebKit/537.36 (KHTML, like Gecko) Chrome/109.0.0.0 Safari/537.36" etag="wCSmIlaa9Qam52AsR2rr" version="20.8.11" type="github">
  <diagram name="Page-1" id="u8UjKkn0u4j8-JwncoaO">
    <mxGraphModel dx="1034" dy="404" grid="1" gridSize="10" guides="1" tooltips="1" connect="1" arrows="1" fold="1" page="1" pageScale="1" pageWidth="850" pageHeight="1100" math="0" shadow="0">
      <root>
        <mxCell id="0" />
        <mxCell id="1" parent="0" />
        <mxCell id="B0iv0o7tv5YSU56jogPy-3" value="" style="edgeStyle=orthogonalEdgeStyle;rounded=0;orthogonalLoop=1;jettySize=auto;html=1;" edge="1" parent="1" source="B0iv0o7tv5YSU56jogPy-1" target="B0iv0o7tv5YSU56jogPy-2">
          <mxGeometry relative="1" as="geometry" />
        </mxCell>
        <mxCell id="B0iv0o7tv5YSU56jogPy-1" value="UI/ Third Party consumers" style="rounded=0;whiteSpace=wrap;html=1;" vertex="1" parent="1">
          <mxGeometry x="350.25" y="170" width="240" height="60" as="geometry" />
        </mxCell>
        <mxCell id="B0iv0o7tv5YSU56jogPy-2" value="" style="outlineConnect=0;dashed=0;verticalLabelPosition=bottom;verticalAlign=top;align=center;html=1;shape=mxgraph.aws3.api_gateway;fillColor=#D9A741;gradientColor=none;" vertex="1" parent="1">
          <mxGeometry x="432" y="310" width="76.5" height="93" as="geometry" />
        </mxCell>
        <mxCell id="B0iv0o7tv5YSU56jogPy-4" value="Authentication" style="whiteSpace=wrap;html=1;aspect=fixed;" vertex="1" parent="1">
          <mxGeometry x="140" y="460" width="80" height="80" as="geometry" />
        </mxCell>
        <mxCell id="B0iv0o7tv5YSU56jogPy-19" value="" style="edgeStyle=orthogonalEdgeStyle;rounded=0;orthogonalLoop=1;jettySize=auto;html=1;" edge="1" parent="1" source="B0iv0o7tv5YSU56jogPy-5" target="B0iv0o7tv5YSU56jogPy-6">
          <mxGeometry relative="1" as="geometry" />
        </mxCell>
        <mxCell id="B0iv0o7tv5YSU56jogPy-5" value="User Management" style="whiteSpace=wrap;html=1;aspect=fixed;" vertex="1" parent="1">
          <mxGeometry x="240" y="460" width="80" height="80" as="geometry" />
        </mxCell>
        <mxCell id="B0iv0o7tv5YSU56jogPy-6" value="DB" style="shape=cylinder3;whiteSpace=wrap;html=1;boundedLbl=1;backgroundOutline=1;size=15;" vertex="1" parent="1">
          <mxGeometry x="250" y="570" width="60" height="80" as="geometry" />
        </mxCell>
        <mxCell id="B0iv0o7tv5YSU56jogPy-20" value="" style="edgeStyle=orthogonalEdgeStyle;rounded=0;orthogonalLoop=1;jettySize=auto;html=1;" edge="1" parent="1" source="B0iv0o7tv5YSU56jogPy-7" target="B0iv0o7tv5YSU56jogPy-8">
          <mxGeometry relative="1" as="geometry" />
        </mxCell>
        <mxCell id="B0iv0o7tv5YSU56jogPy-7" value="Master data/Configs" style="whiteSpace=wrap;html=1;aspect=fixed;" vertex="1" parent="1">
          <mxGeometry x="362" y="460" width="80" height="80" as="geometry" />
        </mxCell>
        <mxCell id="B0iv0o7tv5YSU56jogPy-8" value="DB" style="shape=cylinder3;whiteSpace=wrap;html=1;boundedLbl=1;backgroundOutline=1;size=15;" vertex="1" parent="1">
          <mxGeometry x="372" y="570" width="60" height="80" as="geometry" />
        </mxCell>
        <mxCell id="B0iv0o7tv5YSU56jogPy-22" value="" style="edgeStyle=orthogonalEdgeStyle;rounded=0;orthogonalLoop=1;jettySize=auto;html=1;" edge="1" parent="1" source="B0iv0o7tv5YSU56jogPy-9" target="B0iv0o7tv5YSU56jogPy-21">
          <mxGeometry relative="1" as="geometry" />
        </mxCell>
        <mxCell id="B0iv0o7tv5YSU56jogPy-9" value="Loan process" style="whiteSpace=wrap;html=1;aspect=fixed;" vertex="1" parent="1">
          <mxGeometry x="480" y="460" width="80" height="80" as="geometry" />
        </mxCell>
        <mxCell id="B0iv0o7tv5YSU56jogPy-10" value="Fund money" style="whiteSpace=wrap;html=1;aspect=fixed;" vertex="1" parent="1">
          <mxGeometry x="580" y="460" width="80" height="80" as="geometry" />
        </mxCell>
        <mxCell id="B0iv0o7tv5YSU56jogPy-17" value="Notifications" style="whiteSpace=wrap;html=1;aspect=fixed;" vertex="1" parent="1">
          <mxGeometry x="690" y="460" width="80" height="80" as="geometry" />
        </mxCell>
        <mxCell id="B0iv0o7tv5YSU56jogPy-21" value="DB" style="shape=cylinder3;whiteSpace=wrap;html=1;boundedLbl=1;backgroundOutline=1;size=15;" vertex="1" parent="1">
          <mxGeometry x="490" y="570" width="60" height="80" as="geometry" />
        </mxCell>
        <mxCell id="B0iv0o7tv5YSU56jogPy-26" value="" style="edgeStyle=orthogonalEdgeStyle;rounded=0;orthogonalLoop=1;jettySize=auto;html=1;" edge="1" parent="1" source="B0iv0o7tv5YSU56jogPy-23" target="B0iv0o7tv5YSU56jogPy-24">
          <mxGeometry relative="1" as="geometry" />
        </mxCell>
        <mxCell id="B0iv0o7tv5YSU56jogPy-23" value="Thirdparty integrations" style="whiteSpace=wrap;html=1;aspect=fixed;" vertex="1" parent="1">
          <mxGeometry x="638" y="570" width="80" height="80" as="geometry" />
        </mxCell>
        <mxCell id="B0iv0o7tv5YSU56jogPy-24" value="DB" style="shape=cylinder3;whiteSpace=wrap;html=1;boundedLbl=1;backgroundOutline=1;size=15;" vertex="1" parent="1">
          <mxGeometry x="648" y="680" width="60" height="80" as="geometry" />
        </mxCell>
        <mxCell id="B0iv0o7tv5YSU56jogPy-27" value="" style="outlineConnect=0;dashed=0;verticalLabelPosition=bottom;verticalAlign=top;align=center;html=1;shape=mxgraph.aws3.s3;fillColor=#E05243;gradientColor=none;" vertex="1" parent="1">
          <mxGeometry x="250" y="717" width="76.5" height="93" as="geometry" />
        </mxCell>
        <mxCell id="B0iv0o7tv5YSU56jogPy-28" value="S3" style="text;html=1;align=center;verticalAlign=middle;resizable=0;points=[];autosize=1;strokeColor=none;fillColor=none;" vertex="1" parent="1">
          <mxGeometry x="260" y="813.5" width="40" height="30" as="geometry" />
        </mxCell>
        <mxCell id="B0iv0o7tv5YSU56jogPy-29" value="" style="outlineConnect=0;dashed=0;verticalLabelPosition=bottom;verticalAlign=top;align=center;html=1;shape=mxgraph.aws3.kms;fillColor=#759C3E;gradientColor=none;" vertex="1" parent="1">
          <mxGeometry x="362" y="717" width="76.5" height="93" as="geometry" />
        </mxCell>
        <mxCell id="B0iv0o7tv5YSU56jogPy-30" value="KMS" style="text;html=1;align=center;verticalAlign=middle;resizable=0;points=[];autosize=1;strokeColor=none;fillColor=none;" vertex="1" parent="1">
          <mxGeometry x="380.5" y="810" width="50" height="30" as="geometry" />
        </mxCell>
        <mxCell id="B0iv0o7tv5YSU56jogPy-31" value="" style="outlineConnect=0;dashed=0;verticalLabelPosition=bottom;verticalAlign=top;align=center;html=1;shape=mxgraph.aws3.sns;fillColor=#D9A741;gradientColor=none;" vertex="1" parent="1">
          <mxGeometry x="270" y="860" width="76.5" height="76.5" as="geometry" />
        </mxCell>
        <mxCell id="B0iv0o7tv5YSU56jogPy-32" value="SNS" style="text;html=1;align=center;verticalAlign=middle;resizable=0;points=[];autosize=1;strokeColor=none;fillColor=none;" vertex="1" parent="1">
          <mxGeometry x="283.25" y="950" width="50" height="30" as="geometry" />
        </mxCell>
        <mxCell id="B0iv0o7tv5YSU56jogPy-33" value="" style="outlineConnect=0;dashed=0;verticalLabelPosition=bottom;verticalAlign=top;align=center;html=1;shape=mxgraph.aws3.ses;fillColor=#D9A741;gradientColor=none;" vertex="1" parent="1">
          <mxGeometry x="380.5" y="843.5" width="79.5" height="93" as="geometry" />
        </mxCell>
        <mxCell id="B0iv0o7tv5YSU56jogPy-34" value="SES" style="text;html=1;align=center;verticalAlign=middle;resizable=0;points=[];autosize=1;strokeColor=none;fillColor=none;" vertex="1" parent="1">
          <mxGeometry x="400" y="950" width="50" height="30" as="geometry" />
        </mxCell>
        <mxCell id="B0iv0o7tv5YSU56jogPy-35" value="" style="sketch=0;outlineConnect=0;fontColor=#232F3E;gradientColor=none;fillColor=#067F68;strokeColor=none;dashed=0;verticalLabelPosition=bottom;verticalAlign=top;align=center;html=1;fontSize=12;fontStyle=0;aspect=fixed;shape=mxgraph.aws4.transfer_for_sftp_resource;" vertex="1" parent="1">
          <mxGeometry x="530" y="843.5" width="76" height="78" as="geometry" />
        </mxCell>
        <mxCell id="B0iv0o7tv5YSU56jogPy-36" value="" style="sketch=0;points=[[0,0,0],[0.25,0,0],[0.5,0,0],[0.75,0,0],[1,0,0],[0,1,0],[0.25,1,0],[0.5,1,0],[0.75,1,0],[1,1,0],[0,0.25,0],[0,0.5,0],[0,0.75,0],[1,0.25,0],[1,0.5,0],[1,0.75,0]];outlineConnect=0;fontColor=#232F3E;gradientColor=#945DF2;gradientDirection=north;fillColor=#5A30B5;strokeColor=#ffffff;dashed=0;verticalLabelPosition=bottom;verticalAlign=top;align=center;html=1;fontSize=12;fontStyle=0;aspect=fixed;shape=mxgraph.aws4.resourceIcon;resIcon=mxgraph.aws4.managed_streaming_for_kafka;" vertex="1" parent="1">
          <mxGeometry x="512.25" y="732" width="78" height="78" as="geometry" />
        </mxCell>
      </root>
    </mxGraphModel>
  </diagram>
</mxfile>
